<?xml version="1.0" encoding="UTF-8" standalone="no"?><!DOCTYPE svg PUBLIC "-//W3C//DTD SVG 1.1//EN" "http://www.w3.org/Graphics/SVG/1.1/DTD/svg11.dtd"><!-- Generated by graphviz version 2.40.1 (20161225.0304)
 --><!-- Title: Tree Pages: 1 --><svg xmlns="http://www.w3.org/2000/svg" xmlns:xlink="http://www.w3.org/1999/xlink" width="1425pt" height="710pt" viewBox="0.00 0.00 1424.63 710.40">
<g id="graph0" class="graph" transform="scale(1 1) rotate(0) translate(4 706.4)">
<title>Tree</title>
<polygon fill="#ffffff" stroke="transparent" points="-4,4 -4,-706.4 1420.6311,-706.4 1420.6311,4 -4,4"/>
<!-- 0 -->
<g id="node1" class="node">
<title>0</title>
<polygon fill="none" stroke="#000000" points="1158.0924,-702.6014 1017.4554,-702.6014 1017.4554,-643.7986 1158.0924,-643.7986 1158.0924,-702.6014"/>
<text text-anchor="middle" x="1087.7739" y="-685.8" font-family="Times,serif" font-size="14.00" fill="#000000">Country:United States</text>
<text text-anchor="middle" x="1087.7739" y="-669" font-family="Times,serif" font-size="14.00" fill="#000000">samples = 3362</text>
<text text-anchor="middle" x="1087.7739" y="-652.2" font-family="Times,serif" font-size="14.00" fill="#000000">value = 78652.105</text>
</g>
<!-- 1 -->
<g id="node2" class="node">
<title>1</title>
<polygon fill="none" stroke="#000000" points="1067.7663,-608.2014 899.7815,-608.2014 899.7815,-549.3986 1067.7663,-549.3986 1067.7663,-608.2014"/>
<text text-anchor="middle" x="983.7739" y="-591.4" font-family="Times,serif" font-size="14.00" fill="#000000">Tenure:More than 10 years</text>
<text text-anchor="middle" x="983.7739" y="-574.6" font-family="Times,serif" font-size="14.00" fill="#000000">samples = 2270</text>
<text text-anchor="middle" x="983.7739" y="-557.8" font-family="Times,serif" font-size="14.00" fill="#000000">value = 59177.834</text>
</g>
<!-- 0&#45;&gt;1 -->
<g id="edge1" class="edge">
<title>0-&gt;1</title>
<path fill="none" stroke="#000000" d="M1055.4377,-643.8487C1045.3616,-634.7027 1034.1302,-624.508 1023.6038,-614.9533"/>
<polygon fill="#000000" stroke="#000000" points="1025.847,-612.2626 1016.0901,-608.1331 1021.1423,-617.4458 1025.847,-612.2626"/>
<text text-anchor="middle" x="1017.2983" y="-628.9039" font-family="Times,serif" font-size="14.00" fill="#000000">False</text>
</g>
<!-- 22 -->
<g id="node23" class="node">
<title>22</title>
<polygon fill="none" stroke="#000000" points="1288.7663,-608.2014 1120.7815,-608.2014 1120.7815,-549.3986 1288.7663,-549.3986 1288.7663,-608.2014"/>
<text text-anchor="middle" x="1204.7739" y="-591.4" font-family="Times,serif" font-size="14.00" fill="#000000">Tenure:More than 10 years</text>
<text text-anchor="middle" x="1204.7739" y="-574.6" font-family="Times,serif" font-size="14.00" fill="#000000">samples = 1092</text>
<text text-anchor="middle" x="1204.7739" y="-557.8" font-family="Times,serif" font-size="14.00" fill="#000000">value = 119134.334</text>
</g>
<!-- 0&#45;&gt;22 -->
<g id="edge22" class="edge">
<title>0-&gt;22</title>
<path fill="none" stroke="#000000" d="M1124.1521,-643.8487C1135.5978,-634.6139 1148.3685,-624.31 1160.31,-614.6751"/>
<polygon fill="#000000" stroke="#000000" points="1162.8333,-617.1365 1168.4182,-608.1331 1158.4377,-611.6886 1162.8333,-617.1365"/>
<text text-anchor="middle" x="1165.7607" y="-628.7915" font-family="Times,serif" font-size="14.00" fill="#000000">True</text>
</g>
<!-- 2 -->
<g id="node3" class="node">
<title>2</title>
<polygon fill="none" stroke="#000000" points="828.7327,-513.8014 696.8151,-513.8014 696.8151,-454.9986 828.7327,-454.9986 828.7327,-513.8014"/>
<text text-anchor="middle" x="762.7739" y="-497" font-family="Times,serif" font-size="14.00" fill="#000000">Tenure:6 to 10 years</text>
<text text-anchor="middle" x="762.7739" y="-480.2" font-family="Times,serif" font-size="14.00" fill="#000000">samples = 1820</text>
<text text-anchor="middle" x="762.7739" y="-463.4" font-family="Times,serif" font-size="14.00" fill="#000000">value = 51883.961</text>
</g>
<!-- 1&#45;&gt;2 -->
<g id="edge2" class="edge">
<title>1-&gt;2</title>
<path fill="none" stroke="#000000" d="M915.3616,-549.5777C890.8567,-539.1105 863.1051,-527.2564 838.0513,-516.5547"/>
<polygon fill="#000000" stroke="#000000" points="839.1648,-513.2244 828.5937,-512.5149 836.4151,-519.6618 839.1648,-513.2244"/>
</g>
<!-- 19 -->
<g id="node20" class="node">
<title>19</title>
<polygon fill="none" stroke="#000000" points="1107.7822,-513.8014 859.7656,-513.8014 859.7656,-454.9986 1107.7822,-454.9986 1107.7822,-513.8014"/>
<text text-anchor="middle" x="983.7739" y="-497" font-family="Times,serif" font-size="14.00" fill="#000000">JobFunction:Influence business decisions</text>
<text text-anchor="middle" x="983.7739" y="-480.2" font-family="Times,serif" font-size="14.00" fill="#000000">samples = 450</text>
<text text-anchor="middle" x="983.7739" y="-463.4" font-family="Times,serif" font-size="14.00" fill="#000000">value = 88677.501</text>
</g>
<!-- 1&#45;&gt;19 -->
<g id="edge19" class="edge">
<title>1-&gt;19</title>
<path fill="none" stroke="#000000" d="M983.7739,-549.4487C983.7739,-541.3682 983.7739,-532.4692 983.7739,-523.9162"/>
<polygon fill="#000000" stroke="#000000" points="987.274,-523.7331 983.7739,-513.7331 980.274,-523.7332 987.274,-523.7331"/>
</g>
<!-- 3 -->
<g id="node4" class="node">
<title>3</title>
<polygon fill="none" stroke="#000000" points="660.9886,-419.4014 540.5592,-419.4014 540.5592,-360.5986 660.9886,-360.5986 660.9886,-419.4014"/>
<text text-anchor="middle" x="600.7739" y="-402.6" font-family="Times,serif" font-size="14.00" fill="#000000">Country:India</text>
<text text-anchor="middle" x="600.7739" y="-385.8" font-family="Times,serif" font-size="14.00" fill="#000000">samples = 1404</text>
<text text-anchor="middle" x="600.7739" y="-369" font-family="Times,serif" font-size="14.00" fill="#000000">value = 47725.707</text>
</g>
<!-- 2&#45;&gt;3 -->
<g id="edge3" class="edge">
<title>2-&gt;3</title>
<path fill="none" stroke="#000000" d="M712.4041,-455.0487C695.7942,-445.3699 677.1691,-434.5167 659.9628,-424.4903"/>
<polygon fill="#000000" stroke="#000000" points="661.5148,-421.3439 651.1125,-419.3331 657.9905,-427.392 661.5148,-421.3439"/>
</g>
<!-- 16 -->
<g id="node17" class="node">
<title>16</title>
<polygon fill="none" stroke="#000000" points="846.2073,-419.4014 679.3405,-419.4014 679.3405,-360.5986 846.2073,-360.5986 846.2073,-419.4014"/>
<text text-anchor="middle" x="762.7739" y="-402.6" font-family="Times,serif" font-size="14.00" fill="#000000">Education:Master's degree</text>
<text text-anchor="middle" x="762.7739" y="-385.8" font-family="Times,serif" font-size="14.00" fill="#000000">samples = 416</text>
<text text-anchor="middle" x="762.7739" y="-369" font-family="Times,serif" font-size="14.00" fill="#000000">value = 65918.065</text>
</g>
<!-- 2&#45;&gt;16 -->
<g id="edge16" class="edge">
<title>2-&gt;16</title>
<path fill="none" stroke="#000000" d="M762.7739,-455.0487C762.7739,-446.9682 762.7739,-438.0692 762.7739,-429.5162"/>
<polygon fill="#000000" stroke="#000000" points="766.274,-429.3331 762.7739,-419.3331 759.274,-429.3332 766.274,-429.3331"/>
</g>
<!-- 4 -->
<g id="node5" class="node">
<title>4</title>
<polygon fill="none" stroke="#000000" points="528.2327,-325.0014 403.3151,-325.0014 403.3151,-266.1986 528.2327,-266.1986 528.2327,-325.0014"/>
<text text-anchor="middle" x="465.7739" y="-308.2" font-family="Times,serif" font-size="14.00" fill="#000000">Tenure:3 to 5 years</text>
<text text-anchor="middle" x="465.7739" y="-291.4" font-family="Times,serif" font-size="14.00" fill="#000000">samples = 1228</text>
<text text-anchor="middle" x="465.7739" y="-274.6" font-family="Times,serif" font-size="14.00" fill="#000000">value = 50323.383</text>
</g>
<!-- 3&#45;&gt;4 -->
<g id="edge4" class="edge">
<title>3-&gt;4</title>
<path fill="none" stroke="#000000" d="M558.7991,-360.6487C545.3385,-351.2363 530.2897,-340.7133 516.2846,-330.92"/>
<polygon fill="#000000" stroke="#000000" points="517.9237,-327.7954 507.7228,-324.9331 513.9122,-333.532 517.9237,-327.7954"/>
</g>
<!-- 15 -->
<g id="node16" class="node">
<title>15</title>
<polygon fill="none" stroke="#000000" points="666.9886,-316.2019 546.5592,-316.2019 546.5592,-274.9981 666.9886,-274.9981 666.9886,-316.2019"/>
<text text-anchor="middle" x="606.7739" y="-299.8" font-family="Times,serif" font-size="14.00" fill="#000000">samples = 176</text>
<text text-anchor="middle" x="606.7739" y="-283" font-family="Times,serif" font-size="14.00" fill="#000000">value = 29601.014</text>
</g>
<!-- 3&#45;&gt;15 -->
<g id="edge15" class="edge">
<title>3-&gt;15</title>
<path fill="none" stroke="#000000" d="M602.6394,-360.6487C603.3329,-349.7386 604.1212,-337.3363 604.8221,-326.308"/>
<polygon fill="#000000" stroke="#000000" points="608.32,-326.4509 605.4615,-316.249 601.3341,-326.0068 608.32,-326.4509"/>
</g>
<!-- 5 -->
<g id="node6" class="node">
<title>5</title>
<polygon fill="none" stroke="#000000" points="459.8687,-230.6014 281.6791,-230.6014 281.6791,-171.7986 459.8687,-171.7986 459.8687,-230.6014"/>
<text text-anchor="middle" x="370.7739" y="-213.8" font-family="Times,serif" font-size="14.00" fill="#000000">Education:Bachelor's degree</text>
<text text-anchor="middle" x="370.7739" y="-197" font-family="Times,serif" font-size="14.00" fill="#000000">samples = 584</text>
<text text-anchor="middle" x="370.7739" y="-180.2" font-family="Times,serif" font-size="14.00" fill="#000000">value = 45759.972</text>
</g>
<!-- 4&#45;&gt;5 -->
<g id="edge5" class="edge">
<title>4-&gt;5</title>
<path fill="none" stroke="#000000" d="M436.2361,-266.2487C427.1212,-257.1914 416.9715,-247.1059 407.4372,-237.6317"/>
<polygon fill="#000000" stroke="#000000" points="409.854,-235.0991 400.2935,-230.5331 404.9199,-240.0645 409.854,-235.0991"/>
</g>
<!-- 10 -->
<g id="node11" class="node">
<title>10</title>
<polygon fill="none" stroke="#000000" points="643.8287,-230.6014 477.7191,-230.6014 477.7191,-171.7986 643.8287,-171.7986 643.8287,-230.6014"/>
<text text-anchor="middle" x="560.7739" y="-213.8" font-family="Times,serif" font-size="14.00" fill="#000000">LearningStyle:MixLearner</text>
<text text-anchor="middle" x="560.7739" y="-197" font-family="Times,serif" font-size="14.00" fill="#000000">samples = 644</text>
<text text-anchor="middle" x="560.7739" y="-180.2" font-family="Times,serif" font-size="14.00" fill="#000000">value = 54461.632</text>
</g>
<!-- 4&#45;&gt;10 -->
<g id="edge10" class="edge">
<title>4-&gt;10</title>
<path fill="none" stroke="#000000" d="M495.3117,-266.2487C504.4266,-257.1914 514.5763,-247.1059 524.1106,-237.6317"/>
<polygon fill="#000000" stroke="#000000" points="526.6279,-240.0645 531.2543,-230.5331 521.6938,-235.0991 526.6279,-240.0645"/>
</g>
<!-- 6 -->
<g id="node7" class="node">
<title>6</title>
<polygon fill="none" stroke="#000000" points="295.322,-136.2014 .2258,-136.2014 .2258,-77.3986 295.322,-77.3986 295.322,-136.2014"/>
<text text-anchor="middle" x="147.7739" y="-119.4" font-family="Times,serif" font-size="14.00" fill="#000000">Understanding:Enough to explain non-technically</text>
<text text-anchor="middle" x="147.7739" y="-102.6" font-family="Times,serif" font-size="14.00" fill="#000000">samples = 407</text>
<text text-anchor="middle" x="147.7739" y="-85.8" font-family="Times,serif" font-size="14.00" fill="#000000">value = 47440.65</text>
</g>
<!-- 5&#45;&gt;6 -->
<g id="edge6" class="edge">
<title>5-&gt;6</title>
<path fill="none" stroke="#000000" d="M301.7425,-171.9777C277.8098,-161.8466 250.808,-150.4162 226.1761,-139.9891"/>
<polygon fill="#000000" stroke="#000000" points="227.4363,-136.7219 216.863,-136.0467 224.7075,-143.1682 227.4363,-136.7219"/>
</g>
<!-- 9 -->
<g id="node10" class="node">
<title>9</title>
<polygon fill="none" stroke="#000000" points="433.9886,-127.4019 313.5592,-127.4019 313.5592,-86.1981 433.9886,-86.1981 433.9886,-127.4019"/>
<text text-anchor="middle" x="373.7739" y="-111" font-family="Times,serif" font-size="14.00" fill="#000000">samples = 177</text>
<text text-anchor="middle" x="373.7739" y="-94.2" font-family="Times,serif" font-size="14.00" fill="#000000">value = 41895.363</text>
</g>
<!-- 5&#45;&gt;9 -->
<g id="edge9" class="edge">
<title>5-&gt;9</title>
<path fill="none" stroke="#000000" d="M371.7067,-171.8487C372.0534,-160.9386 372.4475,-148.5363 372.798,-137.508"/>
<polygon fill="#000000" stroke="#000000" points="376.2982,-137.5552 373.1177,-127.449 369.3017,-137.3328 376.2982,-137.5552"/>
</g>
<!-- 7 -->
<g id="node8" class="node">
<title>7</title>
<polygon fill="none" stroke="#000000" points="205.9886,-41.4019 85.5592,-41.4019 85.5592,-.1981 205.9886,-.1981 205.9886,-41.4019"/>
<text text-anchor="middle" x="145.7739" y="-25" font-family="Times,serif" font-size="14.00" fill="#000000">samples = 231</text>
<text text-anchor="middle" x="145.7739" y="-8.2" font-family="Times,serif" font-size="14.00" fill="#000000">value = 46612.366</text>
</g>
<!-- 6&#45;&gt;7 -->
<g id="edge7" class="edge">
<title>6-&gt;7</title>
<path fill="none" stroke="#000000" d="M147.0856,-77.2037C146.8933,-68.9362 146.684,-59.9343 146.4902,-51.5992"/>
<polygon fill="#000000" stroke="#000000" points="149.987,-51.4193 146.2554,-41.5034 142.9889,-51.5822 149.987,-51.4193"/>
</g>
<!-- 8 -->
<g id="node9" class="node">
<title>8</title>
<polygon fill="none" stroke="#000000" points="344.9886,-41.4019 224.5592,-41.4019 224.5592,-.1981 344.9886,-.1981 344.9886,-41.4019"/>
<text text-anchor="middle" x="284.7739" y="-25" font-family="Times,serif" font-size="14.00" fill="#000000">samples = 176</text>
<text text-anchor="middle" x="284.7739" y="-8.2" font-family="Times,serif" font-size="14.00" fill="#000000">value = 48527.772</text>
</g>
<!-- 6&#45;&gt;8 -->
<g id="edge8" class="edge">
<title>6-&gt;8</title>
<path fill="none" stroke="#000000" d="M194.5384,-77.4442C210.2195,-67.6006 227.5959,-56.6927 242.88,-47.0983"/>
<polygon fill="#000000" stroke="#000000" points="244.9999,-49.9001 251.6087,-41.6191 241.2783,-43.9714 244.9999,-49.9001"/>
</g>
<!-- 11 -->
<g id="node12" class="node">
<title>11</title>
<polygon fill="none" stroke="#000000" points="659.8761,-136.2014 457.6717,-136.2014 457.6717,-77.3986 659.8761,-77.3986 659.8761,-136.2014"/>
<text text-anchor="middle" x="558.7739" y="-119.4" font-family="Times,serif" font-size="14.00" fill="#000000">LearningStyle:ClassroomLearner</text>
<text text-anchor="middle" x="558.7739" y="-102.6" font-family="Times,serif" font-size="14.00" fill="#000000">samples = 367</text>
<text text-anchor="middle" x="558.7739" y="-85.8" font-family="Times,serif" font-size="14.00" fill="#000000">value = 51657.709</text>
</g>
<!-- 10&#45;&gt;11 -->
<g id="edge11" class="edge">
<title>10-&gt;11</title>
<path fill="none" stroke="#000000" d="M560.1521,-171.8487C559.9809,-163.7682 559.7923,-154.8692 559.6111,-146.3162"/>
<polygon fill="#000000" stroke="#000000" points="563.1065,-146.0567 559.3954,-136.1331 556.1081,-146.2051 563.1065,-146.0567"/>
</g>
<!-- 14 -->
<g id="node15" class="node">
<title>14</title>
<polygon fill="none" stroke="#000000" points="798.9886,-127.4019 678.5592,-127.4019 678.5592,-86.1981 798.9886,-86.1981 798.9886,-127.4019"/>
<text text-anchor="middle" x="738.7739" y="-111" font-family="Times,serif" font-size="14.00" fill="#000000">samples = 277</text>
<text text-anchor="middle" x="738.7739" y="-94.2" font-family="Times,serif" font-size="14.00" fill="#000000">value = 58176.577</text>
</g>
<!-- 10&#45;&gt;14 -->
<g id="edge14" class="edge">
<title>10-&gt;14</title>
<path fill="none" stroke="#000000" d="M616.1185,-171.8487C640.0839,-159.1389 667.8676,-144.4043 690.9256,-132.1757"/>
<polygon fill="#000000" stroke="#000000" points="692.6436,-135.2264 699.8383,-127.449 689.3639,-129.0423 692.6436,-135.2264"/>
</g>
<!-- 12 -->
<g id="node13" class="node">
<title>12</title>
<polygon fill="none" stroke="#000000" points="548.9886,-41.4019 428.5592,-41.4019 428.5592,-.1981 548.9886,-.1981 548.9886,-41.4019"/>
<text text-anchor="middle" x="488.7739" y="-25" font-family="Times,serif" font-size="14.00" fill="#000000">samples = 182</text>
<text text-anchor="middle" x="488.7739" y="-8.2" font-family="Times,serif" font-size="14.00" fill="#000000">value = 51506.162</text>
</g>
<!-- 11&#45;&gt;12 -->
<g id="edge12" class="edge">
<title>11-&gt;12</title>
<path fill="none" stroke="#000000" d="M534.6839,-77.2037C527.3564,-68.2014 519.3201,-58.3281 512.0475,-49.3933"/>
<polygon fill="#000000" stroke="#000000" points="514.6528,-47.0496 505.6255,-41.5034 509.2238,-51.4686 514.6528,-47.0496"/>
</g>
<!-- 13 -->
<g id="node14" class="node">
<title>13</title>
<polygon fill="none" stroke="#000000" points="673.9887,-41.4019 567.5591,-41.4019 567.5591,-.1981 673.9887,-.1981 673.9887,-41.4019"/>
<text text-anchor="middle" x="620.7739" y="-25" font-family="Times,serif" font-size="14.00" fill="#000000">samples = 185</text>
<text text-anchor="middle" x="620.7739" y="-8.2" font-family="Times,serif" font-size="14.00" fill="#000000">value = 51806.8</text>
</g>
<!-- 11&#45;&gt;13 -->
<g id="edge13" class="edge">
<title>11-&gt;13</title>
<path fill="none" stroke="#000000" d="M580.1108,-77.2037C586.5346,-68.2932 593.5735,-58.5295 599.9628,-49.6671"/>
<polygon fill="#000000" stroke="#000000" points="602.8392,-51.6621 605.8482,-41.5034 597.161,-47.5684 602.8392,-51.6621"/>
</g>
<!-- 17 -->
<g id="node18" class="node">
<title>17</title>
<polygon fill="none" stroke="#000000" points="816.9886,-316.2019 696.5592,-316.2019 696.5592,-274.9981 816.9886,-274.9981 816.9886,-316.2019"/>
<text text-anchor="middle" x="756.7739" y="-299.8" font-family="Times,serif" font-size="14.00" fill="#000000">samples = 235</text>
<text text-anchor="middle" x="756.7739" y="-283" font-family="Times,serif" font-size="14.00" fill="#000000">value = 67092.291</text>
</g>
<!-- 16&#45;&gt;17 -->
<g id="edge17" class="edge">
<title>16-&gt;17</title>
<path fill="none" stroke="#000000" d="M760.9084,-360.6487C760.2149,-349.7386 759.4266,-337.3363 758.7257,-326.308"/>
<polygon fill="#000000" stroke="#000000" points="762.2137,-326.0068 758.0863,-316.249 755.2278,-326.4509 762.2137,-326.0068"/>
</g>
<!-- 18 -->
<g id="node19" class="node">
<title>18</title>
<polygon fill="none" stroke="#000000" points="955.9886,-316.2019 835.5592,-316.2019 835.5592,-274.9981 955.9886,-274.9981 955.9886,-316.2019"/>
<text text-anchor="middle" x="895.7739" y="-299.8" font-family="Times,serif" font-size="14.00" fill="#000000">samples = 181</text>
<text text-anchor="middle" x="895.7739" y="-283" font-family="Times,serif" font-size="14.00" fill="#000000">value = 64393.518</text>
</g>
<!-- 16&#45;&gt;18 -->
<g id="edge18" class="edge">
<title>16-&gt;18</title>
<path fill="none" stroke="#000000" d="M804.1269,-360.6487C821.3998,-348.3888 841.3272,-334.2449 858.1795,-322.2835"/>
<polygon fill="#000000" stroke="#000000" points="860.5526,-324.8912 866.6815,-316.249 856.501,-319.1829 860.5526,-324.8912"/>
</g>
<!-- 20 -->
<g id="node21" class="node">
<title>20</title>
<polygon fill="none" stroke="#000000" points="984.9886,-410.6019 864.5592,-410.6019 864.5592,-369.3981 984.9886,-369.3981 984.9886,-410.6019"/>
<text text-anchor="middle" x="924.7739" y="-394.2" font-family="Times,serif" font-size="14.00" fill="#000000">samples = 266</text>
<text text-anchor="middle" x="924.7739" y="-377.4" font-family="Times,serif" font-size="14.00" fill="#000000">value = 84835.316</text>
</g>
<!-- 19&#45;&gt;20 -->
<g id="edge20" class="edge">
<title>19-&gt;20</title>
<path fill="none" stroke="#000000" d="M965.4293,-455.0487C958.3293,-443.6887 950.2182,-430.7109 943.1182,-419.3509"/>
<polygon fill="#000000" stroke="#000000" points="945.9476,-417.274 937.6795,-410.649 940.0116,-420.984 945.9476,-417.274"/>
</g>
<!-- 21 -->
<g id="node22" class="node">
<title>21</title>
<polygon fill="none" stroke="#000000" points="1123.9886,-410.6019 1003.5592,-410.6019 1003.5592,-369.3981 1123.9886,-369.3981 1123.9886,-410.6019"/>
<text text-anchor="middle" x="1063.7739" y="-394.2" font-family="Times,serif" font-size="14.00" fill="#000000">samples = 184</text>
<text text-anchor="middle" x="1063.7739" y="-377.4" font-family="Times,serif" font-size="14.00" fill="#000000">value = 94231.963</text>
</g>
<!-- 19&#45;&gt;21 -->
<g id="edge21" class="edge">
<title>19-&gt;21</title>
<path fill="none" stroke="#000000" d="M1008.6479,-455.0487C1018.561,-443.3512 1029.9277,-429.9385 1039.7544,-418.343"/>
<polygon fill="#000000" stroke="#000000" points="1042.4796,-420.5408 1046.2747,-410.649 1037.1393,-416.0152 1042.4796,-420.5408"/>
</g>
<!-- 23 -->
<g id="node24" class="node">
<title>23</title>
<polygon fill="none" stroke="#000000" points="1270.7327,-513.8014 1138.8151,-513.8014 1138.8151,-454.9986 1270.7327,-454.9986 1270.7327,-513.8014"/>
<text text-anchor="middle" x="1204.7739" y="-497" font-family="Times,serif" font-size="14.00" fill="#000000">Tenure:6 to 10 years</text>
<text text-anchor="middle" x="1204.7739" y="-480.2" font-family="Times,serif" font-size="14.00" fill="#000000">samples = 765</text>
<text text-anchor="middle" x="1204.7739" y="-463.4" font-family="Times,serif" font-size="14.00" fill="#000000">value = 104379.32</text>
</g>
<!-- 22&#45;&gt;23 -->
<g id="edge23" class="edge">
<title>22-&gt;23</title>
<path fill="none" stroke="#000000" d="M1204.7739,-549.4487C1204.7739,-541.3682 1204.7739,-532.4692 1204.7739,-523.9162"/>
<polygon fill="#000000" stroke="#000000" points="1208.274,-523.7331 1204.7739,-513.7331 1201.274,-523.7332 1208.274,-523.7331"/>
</g>
<!-- 28 -->
<g id="node29" class="node">
<title>28</title>
<polygon fill="none" stroke="#000000" points="1416.4886,-505.0019 1289.0592,-505.0019 1289.0592,-463.7981 1416.4886,-463.7981 1416.4886,-505.0019"/>
<text text-anchor="middle" x="1352.7739" y="-488.6" font-family="Times,serif" font-size="14.00" fill="#000000">samples = 327</text>
<text text-anchor="middle" x="1352.7739" y="-471.8" font-family="Times,serif" font-size="14.00" fill="#000000">value = 153652.944</text>
</g>
<!-- 22&#45;&gt;28 -->
<g id="edge28" class="edge">
<title>22-&gt;28</title>
<path fill="none" stroke="#000000" d="M1250.7907,-549.4487C1270.3644,-536.9639 1293.0013,-522.5252 1311.9683,-510.4273"/>
<polygon fill="#000000" stroke="#000000" points="1313.8516,-513.3775 1320.4004,-505.049 1310.0873,-507.4758 1313.8516,-513.3775"/>
</g>
<!-- 24 -->
<g id="node25" class="node">
<title>24</title>
<polygon fill="none" stroke="#000000" points="1267.2327,-419.4014 1142.3151,-419.4014 1142.3151,-360.5986 1267.2327,-360.5986 1267.2327,-419.4014"/>
<text text-anchor="middle" x="1204.7739" y="-402.6" font-family="Times,serif" font-size="14.00" fill="#000000">Tenure:3 to 5 years</text>
<text text-anchor="middle" x="1204.7739" y="-385.8" font-family="Times,serif" font-size="14.00" fill="#000000">samples = 529</text>
<text text-anchor="middle" x="1204.7739" y="-369" font-family="Times,serif" font-size="14.00" fill="#000000">value = 96686.284</text>
</g>
<!-- 23&#45;&gt;24 -->
<g id="edge24" class="edge">
<title>23-&gt;24</title>
<path fill="none" stroke="#000000" d="M1204.7739,-455.0487C1204.7739,-446.9682 1204.7739,-438.0692 1204.7739,-429.5162"/>
<polygon fill="#000000" stroke="#000000" points="1208.274,-429.3331 1204.7739,-419.3331 1201.274,-429.3332 1208.274,-429.3331"/>
</g>
<!-- 27 -->
<g id="node28" class="node">
<title>27</title>
<polygon fill="none" stroke="#000000" points="1412.4886,-410.6019 1285.0592,-410.6019 1285.0592,-369.3981 1412.4886,-369.3981 1412.4886,-410.6019"/>
<text text-anchor="middle" x="1348.7739" y="-394.2" font-family="Times,serif" font-size="14.00" fill="#000000">samples = 236</text>
<text text-anchor="middle" x="1348.7739" y="-377.4" font-family="Times,serif" font-size="14.00" fill="#000000">value = 121623.456</text>
</g>
<!-- 23&#45;&gt;27 -->
<g id="edge27" class="edge">
<title>23-&gt;27</title>
<path fill="none" stroke="#000000" d="M1249.547,-455.0487C1268.4201,-442.6764 1290.2202,-428.3852 1308.5715,-416.3549"/>
<polygon fill="#000000" stroke="#000000" points="1310.8311,-419.0587 1317.2754,-410.649 1306.9934,-413.2045 1310.8311,-419.0587"/>
</g>
<!-- 25 -->
<g id="node26" class="node">
<title>25</title>
<polygon fill="none" stroke="#000000" points="1193.9886,-316.2019 1073.5592,-316.2019 1073.5592,-274.9981 1193.9886,-274.9981 1193.9886,-316.2019"/>
<text text-anchor="middle" x="1133.7739" y="-299.8" font-family="Times,serif" font-size="14.00" fill="#000000">samples = 195</text>
<text text-anchor="middle" x="1133.7739" y="-283" font-family="Times,serif" font-size="14.00" fill="#000000">value = 88332.974</text>
</g>
<!-- 24&#45;&gt;25 -->
<g id="edge25" class="edge">
<title>24-&gt;25</title>
<path fill="none" stroke="#000000" d="M1182.6982,-360.6487C1173.9849,-349.0637 1164.0063,-335.7963 1155.3431,-324.278"/>
<polygon fill="#000000" stroke="#000000" points="1158.1124,-322.1371 1149.3044,-316.249 1152.5181,-326.3447 1158.1124,-322.1371"/>
</g>
<!-- 26 -->
<g id="node27" class="node">
<title>26</title>
<polygon fill="none" stroke="#000000" points="1339.4886,-316.2019 1212.0592,-316.2019 1212.0592,-274.9981 1339.4886,-274.9981 1339.4886,-316.2019"/>
<text text-anchor="middle" x="1275.7739" y="-299.8" font-family="Times,serif" font-size="14.00" fill="#000000">samples = 334</text>
<text text-anchor="middle" x="1275.7739" y="-283" font-family="Times,serif" font-size="14.00" fill="#000000">value = 101563.216</text>
</g>
<!-- 24&#45;&gt;26 -->
<g id="edge26" class="edge">
<title>24-&gt;26</title>
<path fill="none" stroke="#000000" d="M1226.8496,-360.6487C1235.5629,-349.0637 1245.5415,-335.7963 1254.2047,-324.278"/>
<polygon fill="#000000" stroke="#000000" points="1257.0297,-326.3447 1260.2434,-316.249 1251.4354,-322.1371 1257.0297,-326.3447"/>
</g>
</g>
</svg>